<svg width="0" height="0" class="hidden">
  <symbol xmlns="http://www.w3.org/2000/svg" viewBox="0 0 24 24" id="github">
    <rect x="0" fill="none" width="24" height="24"></rect>
    <g>
      <path d="M12 2C6.477 2 2 6.477 2 12c0 4.419 2.865 8.166 6.839 9.489.5.09.682-.218.682-.484 0-.236-.009-.866-.014-1.699-2.782.602-3.369-1.34-3.369-1.34-.455-1.157-1.11-1.465-1.11-1.465-.909-.62.069-.608.069-.608 1.004.071 1.532 1.03 1.532 1.03.891 1.529 2.341 1.089 2.91.833.091-.647.349-1.086.635-1.337-2.22-.251-4.555-1.111-4.555-4.943 0-1.091.39-1.984 1.03-2.682-.103-.254-.447-1.27.097-2.646 0 0 .84-.269 2.75 1.025A9.548 9.548 0 0112 6.836c.85.004 1.705.114 2.504.336 1.909-1.294 2.748-1.025 2.748-1.025.546 1.376.202 2.394.1 2.646.64.699 1.026 1.591 1.026 2.682 0 3.841-2.337 4.687-4.565 4.935.359.307.679.917.679 1.852 0 1.335-.012 2.415-.012 2.741 0 .269.18.579.688.481A9.997 9.997 0 0022 12c0-5.523-4.477-10-10-10z"></path>
    </g>
  </symbol>
  <symbol xmlns="http://www.w3.org/2000/svg" viewBox="0 0 24 24" id="linkedin">
    <rect x="0" fill="none" width="24" height="24"></rect>
    <g>
      <path d="M19.7 3H4.3A1.3 1.3 0 003 4.3v15.4A1.3 1.3 0 004.3 21h15.4a1.3 1.3 0 001.3-1.3V4.3A1.3 1.3 0 0019.7 3zM8.339 18.338H5.667v-8.59h2.672v8.59zM7.004 8.574a1.548 1.548 0 11-.002-3.096 1.548 1.548 0 01.002 3.096zm11.335 9.764H15.67v-4.177c0-.996-.017-2.278-1.387-2.278-1.389 0-1.601 1.086-1.601 2.206v4.249h-2.667v-8.59h2.559v1.174h.037c.356-.675 1.227-1.387 2.526-1.387 2.703 0 3.203 1.779 3.203 4.092v4.711z"></path>
    </g>
  </symbol>
  <symbol xmlns="http://www.w3.org/2000/svg" viewBox="0 0 24 24" id="x">
    <rect x="0" fill="none" width="24" height="24"></rect>
    <g>
      <path d="M13.982 10.622L20.54 3h-1.554l-5.693 6.618L8.745 3H3.5l6.876 10.007L3.5 21h1.554l6.012-6.989L15.868 21h5.245l-7.131-10.378zm-2.128 2.474l-.697-.997-5.543-7.93H8l4.474 6.4.697.996 5.815 8.318h-2.387l-4.745-6.787z"></path>
    </g>
  </symbol>
</svg>